<svg xmlns="http://www.w3.org/2000/svg" width="96" height="96" viewBox="0 0 96 96">
<rect x="0" y="0" width="96" height="96" fill="none"/>
<ellipse cx="48" cy="80" rx="28" ry="9" fill="#020617" opacity="0.16"/><path d="M16 73 C22 69 28 71 35 72 C46 74 56 74 66 70 C71 68 76 68 81 72" fill="none" stroke="#f8fafc" stroke-width="3" stroke-linecap="round" opacity="0.24"/>
<path d="M 48.00 24.00 L 54.12 33.22 L 64.97 31.03 L 62.78 41.88 L 72.00 48.00 L 62.78 54.12 L 64.97 64.97 L 54.12 62.78 L 48.00 72.00 L 41.88 62.78 L 31.03 64.97 L 33.22 54.12 L 24.00 48.00 L 33.22 41.88 L 31.03 31.03 L 41.88 33.22 Z" fill="#6b7c93" stroke="#111827" stroke-width="2.2" stroke-linejoin="round"/><circle cx="48" cy="48" r="8" fill="#344155" stroke="#111827" stroke-width="2"/>
</svg>
