<svg xmlns="http://www.w3.org/2000/svg" width="96" height="96" viewBox="0 0 96 96">
<rect x="0" y="0" width="96" height="96" fill="none"/>
<ellipse cx="48" cy="80" rx="28" ry="9" fill="#020617" opacity="0.16"/><path d="M16 73 C22 69 28 71 35 72 C46 74 56 74 66 70 C71 68 76 68 81 72" fill="none" stroke="#6b7c93" stroke-width="3" stroke-linecap="round" opacity="0.24"/>
<rect x="20" y="29" width="56" height="36" rx="10" fill="#607089" stroke="#111827" stroke-width="2.4"/><path d="M 39.00 33.00 L 42.90 38.89 L 49.95 38.27 L 47.77 45.00 L 52.65 50.12 L 46.04 52.61 L 45.07 59.61 L 39.00 56.00 L 32.93 59.61 L 31.96 52.61 L 25.35 50.12 L 30.23 45.00 L 28.05 38.27 L 35.10 38.89 Z" fill="#f6b93b" stroke="#111827" stroke-width="1.8" stroke-linejoin="round"/><path d="M 58.00 36.00 L 61.50 40.94 L 67.53 41.50 L 65.00 47.00 L 67.53 52.50 L 61.50 53.06 L 58.00 58.00 L 54.50 53.06 L 48.47 52.50 L 51.00 47.00 L 48.47 41.50 L 54.50 40.94 Z" fill="#6b7c93" stroke="#111827" stroke-width="1.8" stroke-linejoin="round"/><line x1="46" y1="47" x2="51" y2="47" stroke="#111827" stroke-width="2.2"/>
</svg>
