<svg xmlns="http://www.w3.org/2000/svg" width="96" height="96" viewBox="0 0 96 96">
<rect x="0" y="0" width="96" height="96" fill="none"/>
<ellipse cx="48" cy="80" rx="28" ry="9" fill="#020617" opacity="0.16"/><path d="M16 73 C22 69 28 71 35 72 C46 74 56 74 66 70 C71 68 76 68 81 72" fill="none" stroke="#f6b93b" stroke-width="3" stroke-linecap="round" opacity="0.24"/>
<rect x="20" y="28" width="56" height="40" rx="8" fill="#607089" stroke="#111827" stroke-width="2.4"/><rect x="25" y="33" width="46" height="6" rx="3" fill="#f6b93b" opacity="0.7"/><circle cx="27" cy="35" r="2.2" fill="#f8fafc" stroke="#111827" stroke-width="0.9"/><circle cx="69" cy="35" r="2.2" fill="#f8fafc" stroke="#111827" stroke-width="0.9"/><circle cx="27" cy="61" r="2.2" fill="#f8fafc" stroke="#111827" stroke-width="0.9"/><circle cx="69" cy="61" r="2.2" fill="#f8fafc" stroke="#111827" stroke-width="0.9"/><line x1="31" y1="28" x2="31" y2="68" stroke="#111827" stroke-width="2"/><line x1="48" y1="28" x2="48" y2="68" stroke="#111827" stroke-width="2"/><line x1="65" y1="28" x2="65" y2="68" stroke="#111827" stroke-width="2"/>
</svg>
