<svg xmlns="http://www.w3.org/2000/svg" width="96" height="96" viewBox="0 0 96 96">
<rect x="0" y="0" width="96" height="96" fill="none"/>
<ellipse cx="48" cy="80" rx="28" ry="9" fill="#020617" opacity="0.16"/><path d="M16 73 C22 69 28 71 35 72 C46 74 56 74 66 70 C71 68 76 68 81 72" fill="none" stroke="#f8fafc" stroke-width="3" stroke-linecap="round" opacity="0.24"/>
<rect x="24" y="22" width="48" height="50" rx="8" fill="#344155" stroke="#111827" stroke-width="2.4"/><rect x="29" y="27" width="38" height="6" rx="3" fill="#49c774" opacity="0.7"/><circle cx="31" cy="29" r="2.2" fill="#f8fafc" stroke="#111827" stroke-width="0.9"/><circle cx="65" cy="29" r="2.2" fill="#f8fafc" stroke="#111827" stroke-width="0.9"/><circle cx="31" cy="65" r="2.2" fill="#f8fafc" stroke="#111827" stroke-width="0.9"/><circle cx="65" cy="65" r="2.2" fill="#f8fafc" stroke="#111827" stroke-width="0.9"/><rect x="34" y="34" width="28" height="13" rx="4" fill="#f8fafc" opacity="0.84" stroke="#111827" stroke-width="1.4"/><circle cx="40" cy="57" r="5" fill="#ffd16b" stroke="#111827" stroke-width="1.4"/><circle cx="56" cy="57" r="5" fill="#49c774" stroke="#111827" stroke-width="1.4"/>
</svg>
