<svg xmlns="http://www.w3.org/2000/svg" width="96" height="96" viewBox="0 0 96 96">
<rect x="0" y="0" width="96" height="96" fill="none"/>
<ellipse cx="48" cy="80" rx="28" ry="9" fill="#020617" opacity="0.16"/><path d="M16 73 C22 69 28 71 35 72 C46 74 56 74 66 70 C71 68 76 68 81 72" fill="none" stroke="#ef8d32" stroke-width="3" stroke-linecap="round" opacity="0.24"/>
<rect x="21" y="40" width="46" height="20" rx="10" fill="#607089" stroke="#111827" stroke-width="2.4"/><rect x="57" y="24" width="10" height="20" rx="3" fill="#ef8d32" stroke="#111827" stroke-width="1.6"/><circle cx="31" cy="60" r="8" fill="#a8c7dd" stroke="#111827" stroke-width="1.8"/><circle cx="57" cy="60" r="8" fill="#a8c7dd" stroke="#111827" stroke-width="1.8"/><path d="M29 28 C29 21 33 17 38 16 C42 15 47 17 49 22" fill="none" stroke="#f8fafc" stroke-width="3.2" stroke-linecap="round" opacity="0.55"/>
</svg>
