<svg xmlns="http://www.w3.org/2000/svg" width="96" height="96" viewBox="0 0 96 96">
<rect x="0" y="0" width="96" height="96" fill="none"/>
<ellipse cx="48" cy="80" rx="28" ry="9" fill="#020617" opacity="0.16"/><path d="M16 73 C22 69 28 71 35 72 C46 74 56 74 66 70 C71 68 76 68 81 72" fill="none" stroke="#d3b04b" stroke-width="3" stroke-linecap="round" opacity="0.24"/>
<path d="M28 45 C28 33 36 26 47 26 L56 26 L56 39" fill="none" stroke="#d07a3d" stroke-width="8" stroke-linecap="round" stroke-linejoin="round"/><path d="M28 45 C28 33 36 26 47 26 L56 26 L56 39" fill="none" stroke="#111827" stroke-width="2.2" stroke-linecap="round" stroke-linejoin="round"/><rect x="54" y="39" width="16" height="18" rx="5" fill="#a8c7dd" stroke="#111827" stroke-width="2"/><line x1="62" y1="39" x2="62" y2="28" stroke="#d3b04b" stroke-width="3.2" stroke-linecap="round"/><line x1="68" y1="39" x2="68" y2="28" stroke="#d3b04b" stroke-width="3.2" stroke-linecap="round"/>
</svg>
