<svg xmlns="http://www.w3.org/2000/svg" width="96" height="96" viewBox="0 0 96 96">
<rect x="0" y="0" width="96" height="96" fill="none"/>
<ellipse cx="48" cy="80" rx="28" ry="9" fill="#020617" opacity="0.16"/><path d="M16 73 C22 69 28 71 35 72 C46 74 56 74 66 70 C71 68 76 68 81 72" fill="none" stroke="#8fe0ff" stroke-width="3" stroke-linecap="round" opacity="0.24"/>
<circle cx="48" cy="46" r="20" fill="none" stroke="#4aa7d9" stroke-width="5"/><line x1="48" y1="46" x2="66" y2="46" stroke="#111827" stroke-width="2"/><line x1="48" y1="46" x2="57" y2="61.588457268119896" stroke="#111827" stroke-width="2"/><line x1="48" y1="46" x2="39" y2="61.588457268119896" stroke="#111827" stroke-width="2"/><line x1="48" y1="46" x2="30" y2="46" stroke="#111827" stroke-width="2"/><line x1="48" y1="46" x2="38.99999999999999" y2="30.411542731880107" stroke="#111827" stroke-width="2"/><line x1="48" y1="46" x2="57" y2="30.411542731880104" stroke="#111827" stroke-width="2"/><rect x="23" y="58" width="50" height="12" rx="6" fill="#8fe0ff" opacity="0.8" stroke="#111827" stroke-width="2"/>
</svg>
