<svg xmlns="http://www.w3.org/2000/svg" width="96" height="96" viewBox="0 0 96 96">
<rect x="0" y="0" width="96" height="96" fill="none"/>
<ellipse cx="48" cy="80" rx="28" ry="9" fill="#020617" opacity="0.16"/><path d="M16 73 C22 69 28 71 35 72 C46 74 56 74 66 70 C71 68 76 68 81 72" fill="none" stroke="#dce9ff" stroke-width="3" stroke-linecap="round" opacity="0.24"/>
<path d="M16 60 C16 41 29 23 48 22 C67 21 80 38 80 57 C80 69 71 75 58 76 L31 76 C22 75 16 68 16 60 Z" fill="#374151" stroke="#111827" stroke-width="2.8" stroke-linejoin="round"/><path d="M28 64 L39 50 L48 56 L60 40 L70 49" fill="none" stroke="#dce9ff" stroke-width="5" stroke-linecap="round" stroke-linejoin="round"/><path d="M39 50 L35 39 M48 56 L47 68 M60 40 L67 28" fill="none" stroke="#f8fdff" stroke-width="3.2" stroke-linecap="round" opacity="0.75"/><circle cx="71" cy="25" r="7" fill="#f8fdff" stroke="#111827" stroke-width="1.8"/><line x1="67" y1="25" x2="75" y2="25" stroke="#111827" stroke-width="1.4" opacity="0.7"/>
</svg>
