<svg xmlns="http://www.w3.org/2000/svg" width="96" height="96" viewBox="0 0 96 96">
<rect x="0" y="0" width="96" height="96" fill="none"/>
<ellipse cx="48" cy="80" rx="28" ry="9" fill="#020617" opacity="0.16"/><path d="M16 73 C22 69 28 71 35 72 C46 74 56 74 66 70 C71 68 76 68 81 72" fill="none" stroke="#ef8d32" stroke-width="3" stroke-linecap="round" opacity="0.24"/>
<path d="M21 54 C24 39 34 31 48 31 C62 31 72 39 75 54 C76 60 71 67 64 69 L32 69 C25 67 20 60 21 54 Z" fill="#5b6472" stroke="#111827" stroke-width="2.6" stroke-linejoin="round"/><path d="M37 31 C42 25 47 23 50 22 C55 21 60 23 64 28" fill="none" stroke="#a4afbe" stroke-width="4" stroke-linecap="round"/><rect x="56" y="18" width="10" height="28" rx="5" fill="#a4afbe" stroke="#111827" stroke-width="2" transform="rotate(24 61 32)"/>
</svg>
