<svg xmlns="http://www.w3.org/2000/svg" width="96" height="96" viewBox="0 0 96 96">
<rect x="0" y="0" width="96" height="96" fill="none"/>
<ellipse cx="48" cy="80" rx="28" ry="9" fill="#020617" opacity="0.16"/><path d="M16 73 C22 69 28 71 35 72 C46 74 56 74 66 70 C71 68 76 68 81 72" fill="none" stroke="#ef8d32" stroke-width="3" stroke-linecap="round" opacity="0.24"/>
<rect x="21" y="24" width="54" height="47" rx="8" fill="#5b6472" stroke="#111827" stroke-width="2.4"/><rect x="26" y="29" width="44" height="6" rx="3" fill="#ef8d32" opacity="0.7"/><circle cx="28" cy="31" r="2.2" fill="#f8fafc" stroke="#111827" stroke-width="0.9"/><circle cx="68" cy="31" r="2.2" fill="#f8fafc" stroke="#111827" stroke-width="0.9"/><circle cx="28" cy="64" r="2.2" fill="#f8fafc" stroke="#111827" stroke-width="0.9"/><circle cx="68" cy="64" r="2.2" fill="#f8fafc" stroke="#111827" stroke-width="0.9"/><rect x="31" y="41" width="34" height="21" rx="8" fill="#1f2430" stroke="#111827" stroke-width="2.2"/><path d="M48 40 C41 48 40 54 48 60 C56 54 55 47 48 40 Z" fill="#ffd16b" stroke="#ef8d32" stroke-width="1.8"/><rect x="40" y="18" width="16" height="10" rx="4" fill="#a4afbe" stroke="#111827" stroke-width="1.8"/>
</svg>
