<svg xmlns="http://www.w3.org/2000/svg" width="96" height="96" viewBox="0 0 96 96">
<rect x="0" y="0" width="96" height="96" fill="none"/>
<ellipse cx="48" cy="80" rx="28" ry="9" fill="#020617" opacity="0.16"/><path d="M16 73 C22 69 28 71 35 72 C46 74 56 74 66 70 C71 68 76 68 81 72" fill="none" stroke="#49c774" stroke-width="3" stroke-linecap="round" opacity="0.24"/>
<rect x="18" y="34" width="60" height="28" rx="14" fill="#1f2430" stroke="#111827" stroke-width="2.6"/><rect x="24" y="40" width="48" height="16" rx="8" fill="#344155" stroke="#111827" stroke-width="1.6"/><circle cx="22" cy="63" r="6" fill="#a8c7dd" stroke="#111827" stroke-width="2"/><circle cx="74" cy="63" r="6" fill="#a8c7dd" stroke="#111827" stroke-width="2"/><path d="M34 40 L44 48 L34 56" fill="none" stroke="#49c774" stroke-width="4.4" stroke-linecap="round" stroke-linejoin="round"/><path d="M52 40 L62 48 L52 56" fill="none" stroke="#49c774" stroke-width="4.4" stroke-linecap="round" stroke-linejoin="round"/><path d="M33 37 L48 48 L63 37" fill="none" stroke="#f8fafc" stroke-width="4" stroke-linecap="round" stroke-linejoin="round"/>
</svg>
