<svg xmlns="http://www.w3.org/2000/svg" width="96" height="96" viewBox="0 0 96 96">
<rect x="0" y="0" width="96" height="96" fill="none"/>
<ellipse cx="48" cy="80" rx="28" ry="9" fill="#020617" opacity="0.16"/><path d="M16 73 C22 69 28 71 35 72 C46 74 56 74 66 70 C71 68 76 68 81 72" fill="none" stroke="#9cc2d3" stroke-width="3" stroke-linecap="round" opacity="0.24"/>
<polygon points="18,60 24,36 43,22 66,24 80,43 74,66 54,78 30,74" fill="#5b6472" stroke="#111827" stroke-width="2.8" stroke-linejoin="round"/><polygon points="28,56 34,40 49,32 62,35 69,49 62,62 44,68 33,64" fill="#9cc2d3" opacity="0.28" stroke="#111827" stroke-width="1.1" stroke-linejoin="round"/><line x1="31" y1="35" x2="48" y2="28" stroke="#a4afbe" stroke-width="3" stroke-linecap="round" opacity="0.34"/><line x1="23" y1="56" x2="34" y2="66" stroke="#a4afbe" stroke-width="3" stroke-linecap="round" opacity="0.28"/><circle cx="38" cy="43" r="4.5" fill="#9cc2d3" stroke="#111827" stroke-width="1.4" opacity="0.85"/><circle cx="56" cy="50" r="5.5" fill="#9cc2d3" stroke="#111827" stroke-width="1.4" opacity="0.85"/><circle cx="47" cy="61" r="4" fill="#9cc2d3" stroke="#111827" stroke-width="1.4" opacity="0.85"/>
</svg>
