<svg xmlns="http://www.w3.org/2000/svg" width="96" height="96" viewBox="0 0 96 96">
<rect x="0" y="0" width="96" height="96" fill="none"/>
<ellipse cx="48" cy="80" rx="28" ry="9" fill="#020617" opacity="0.16"/><path d="M16 73 C22 69 28 71 35 72 C46 74 56 74 66 70 C71 68 76 68 81 72" fill="none" stroke="#ffd16b" stroke-width="3" stroke-linecap="round" opacity="0.24"/>
<rect x="31" y="29" width="34" height="41" rx="10" fill="#344155" stroke="#111827" stroke-width="2.4"/><rect x="36" y="34" width="24" height="31" rx="8" fill="#f3e9be" stroke="#111827" stroke-width="1.8" opacity="0.78"/><path d="M48 38 C43 46 42 52 48 59 C54 52 53 45 48 38 Z" fill="#ffd16b" stroke="#ef8d32" stroke-width="1.6"/><path d="M37 29 C39 21 45 17 48 17 C52 17 58 21 59 29" fill="none" stroke="#a8c7dd" stroke-width="4" stroke-linecap="round"/><line x1="41" y1="35" x2="41" y2="64" stroke="#f8fafc" stroke-width="2" opacity="0.32"/><line x1="55" y1="35" x2="55" y2="64" stroke="#f8fafc" stroke-width="2" opacity="0.24"/>
</svg>
