<svg xmlns="http://www.w3.org/2000/svg" width="96" height="96" viewBox="0 0 96 96">
<rect x="0" y="0" width="96" height="96" fill="none"/>
<ellipse cx="48" cy="80" rx="28" ry="9" fill="#020617" opacity="0.16"/><path d="M16 73 C22 69 28 71 35 72 C46 74 56 74 66 70 C71 68 76 68 81 72" fill="none" stroke="#ef8d32" stroke-width="3" stroke-linecap="round" opacity="0.24"/>
<path d="M22 46 L40 46 L49 33 L67 33 L61 46 L74 46 L74 54 L58 54 L53 62 L33 62 L26 54 L22 54 Z" fill="#a8c7dd" stroke="#111827" stroke-width="2.4" stroke-linejoin="round"/><rect x="39" y="62" width="12" height="11" rx="3" fill="#8e5f35" stroke="#4c2f1d" stroke-width="2"/><line x1="27" y1="49" x2="44" y2="36" stroke="#f8fafc" stroke-width="2.4" opacity="0.26" stroke-linecap="round"/>
</svg>
