<svg xmlns="http://www.w3.org/2000/svg" width="576" height="96" viewBox="0 0 576 96">
  <defs>
    <filter id="softGlow" x="-40%" y="-40%" width="180%" height="180%">
      <feGaussianBlur stdDeviation="2.4" result="blur"/>
      <feMerge><feMergeNode in="blur"/><feMergeNode in="SourceGraphic"/></feMerge>
    </filter>
    <linearGradient id="flameOuter" x1="0" x2="0" y1="1" y2="0">
      <stop offset="0" stop-color="#f97316"/>
      <stop offset="0.45" stop-color="#fb923c"/>
      <stop offset="1" stop-color="#facc15"/>
    </linearGradient>
    <linearGradient id="flameInner" x1="0" x2="0" y1="1" y2="0">
      <stop offset="0" stop-color="#fff7ad"/>
      <stop offset="1" stop-color="#fde68a"/>
    </linearGradient>
  </defs>

  <g transform="translate(0 0)">
    <ellipse cx="48" cy="65" rx="34" ry="20" fill="#0f172a" opacity="0.45"/>
    <ellipse cx="48" cy="58" rx="28" ry="26" fill="#f97316" opacity="0.18" filter="url(#softGlow)"/>
    <path d="M48 15 C28 36 32 53 45 67 C24 56 25 36 39 26 C36 45 53 48 48 15 Z" fill="url(#flameOuter)" filter="url(#softGlow)"/>
    <path d="M52 28 C40 42 42 55 50 64 C35 56 38 42 46 35 C44 49 57 48 52 28 Z" fill="url(#flameInner)" opacity="0.95"/>
    <rect x="25" y="68" width="48" height="8" rx="4" fill="#5b3418" transform="rotate(-12 49 72)"/>
    <rect x="25" y="73" width="48" height="8" rx="4" fill="#4a2a14" transform="rotate(12 49 77)"/>
    <circle cx="39" cy="70" r="3" fill="#f59e0b" opacity="0.9"/>
  </g>

  <g transform="translate(96 0)">
    <ellipse cx="48" cy="65" rx="34" ry="20" fill="#0f172a" opacity="0.45"/>
    <ellipse cx="48" cy="58" rx="31" ry="28" fill="#fb923c" opacity="0.20" filter="url(#softGlow)"/>
    <path d="M44 18 C63 36 61 54 48 68 C66 57 70 39 55 26 C60 45 39 47 44 18 Z" fill="url(#flameOuter)" filter="url(#softGlow)"/>
    <path d="M45 31 C57 43 55 57 48 65 C61 57 57 43 51 36 C51 50 39 47 45 31 Z" fill="url(#flameInner)" opacity="0.96"/>
    <rect x="25" y="68" width="48" height="8" rx="4" fill="#5b3418" transform="rotate(-12 49 72)"/>
    <rect x="25" y="73" width="48" height="8" rx="4" fill="#4a2a14" transform="rotate(12 49 77)"/>
    <circle cx="58" cy="69" r="3" fill="#facc15" opacity="0.8"/>
  </g>

  <g transform="translate(192 0)">
    <ellipse cx="48" cy="65" rx="34" ry="20" fill="#0f172a" opacity="0.45"/>
    <ellipse cx="48" cy="58" rx="30" ry="30" fill="#f97316" opacity="0.22" filter="url(#softGlow)"/>
    <path d="M50 10 C31 31 36 52 48 68 C28 57 25 39 42 25 C40 43 57 48 50 10 Z" fill="url(#flameOuter)" filter="url(#softGlow)"/>
    <path d="M49 25 C38 39 42 55 49 65 C35 56 39 42 47 33 C45 48 58 48 49 25 Z" fill="url(#flameInner)" opacity="0.97"/>
    <rect x="25" y="68" width="48" height="8" rx="4" fill="#5b3418" transform="rotate(-12 49 72)"/>
    <rect x="25" y="73" width="48" height="8" rx="4" fill="#4a2a14" transform="rotate(12 49 77)"/>
    <circle cx="47" cy="72" r="4" fill="#fb923c" opacity="0.9"/>
  </g>

  <g transform="translate(288 0)">
    <ellipse cx="48" cy="65" rx="34" ry="20" fill="#0f172a" opacity="0.45"/>
    <ellipse cx="48" cy="58" rx="33" ry="25" fill="#fb923c" opacity="0.18" filter="url(#softGlow)"/>
    <path d="M42 20 C63 35 62 53 49 68 C69 58 68 39 53 28 C58 47 38 49 42 20 Z" fill="url(#flameOuter)" filter="url(#softGlow)"/>
    <path d="M44 32 C57 42 55 56 49 65 C62 57 58 44 51 37 C52 50 40 48 44 32 Z" fill="url(#flameInner)" opacity="0.94"/>
    <rect x="25" y="68" width="48" height="8" rx="4" fill="#5b3418" transform="rotate(-12 49 72)"/>
    <rect x="25" y="73" width="48" height="8" rx="4" fill="#4a2a14" transform="rotate(12 49 77)"/>
    <circle cx="35" cy="71" r="2.5" fill="#f59e0b" opacity="0.85"/>
  </g>

  <g transform="translate(384 0)">
    <ellipse cx="48" cy="65" rx="34" ry="20" fill="#0f172a" opacity="0.45"/>
    <ellipse cx="48" cy="58" rx="28" ry="29" fill="#f97316" opacity="0.21" filter="url(#softGlow)"/>
    <path d="M48 13 C28 34 33 54 46 68 C27 57 28 38 40 27 C37 45 55 47 48 13 Z" fill="url(#flameOuter)" filter="url(#softGlow)"/>
    <path d="M53 28 C40 43 43 56 50 65 C37 56 39 43 47 34 C44 49 59 48 53 28 Z" fill="url(#flameInner)" opacity="0.96"/>
    <rect x="25" y="68" width="48" height="8" rx="4" fill="#5b3418" transform="rotate(-12 49 72)"/>
    <rect x="25" y="73" width="48" height="8" rx="4" fill="#4a2a14" transform="rotate(12 49 77)"/>
    <circle cx="60" cy="72" r="3" fill="#facc15" opacity="0.88"/>
  </g>

  <g transform="translate(480 0)">
    <ellipse cx="48" cy="65" rx="34" ry="20" fill="#0f172a" opacity="0.45"/>
    <ellipse cx="48" cy="58" rx="32" ry="27" fill="#fb923c" opacity="0.19" filter="url(#softGlow)"/>
    <path d="M51 17 C64 34 62 52 48 68 C67 58 70 41 56 29 C58 47 42 49 51 17 Z" fill="url(#flameOuter)" filter="url(#softGlow)"/>
    <path d="M48 30 C58 42 55 56 49 65 C61 57 58 44 51 37 C52 50 41 48 48 30 Z" fill="url(#flameInner)" opacity="0.95"/>
    <rect x="25" y="68" width="48" height="8" rx="4" fill="#5b3418" transform="rotate(-12 49 72)"/>
    <rect x="25" y="73" width="48" height="8" rx="4" fill="#4a2a14" transform="rotate(12 49 77)"/>
    <circle cx="43" cy="69" r="3" fill="#f59e0b" opacity="0.84"/>
  </g>
</svg>
