<svg xmlns="http://www.w3.org/2000/svg" width="96" height="96" viewBox="0 0 96 96">
<rect x="0" y="0" width="96" height="96" fill="none"/>
<ellipse cx="48" cy="80" rx="28" ry="9" fill="#020617" opacity="0.16"/><path d="M16 73 C22 69 28 71 35 72 C46 74 56 74 66 70 C71 68 76 68 81 72" fill="none" stroke="#d07a3d" stroke-width="3" stroke-linecap="round" opacity="0.24"/>
<rect x="42" y="17" width="12" height="14" rx="4" fill="#344155" stroke="#111827" stroke-width="2"/><path d="M48 29 L48 63" stroke="#d07a3d" stroke-width="5" stroke-linecap="round"/><path d="M42 39 L54 45 L42 51 L54 57 L42 63 L54 69" fill="none" stroke="#111827" stroke-width="2" opacity="0.75" stroke-linecap="round" stroke-linejoin="round"/><polygon points="43,63 53,63 48,73" fill="#d07a3d" stroke="#111827" stroke-width="1.6"/><line x1="28" y1="54" x2="42" y2="37" stroke="#a8c7dd" stroke-width="3.2" stroke-linecap="round"/><line x1="68" y1="54" x2="54" y2="37" stroke="#a8c7dd" stroke-width="3.2" stroke-linecap="round"/><path d="M25 63 C31 58 38 56 48 56 C58 56 65 58 71 63" fill="none" stroke="#5b6472" stroke-width="4.6" stroke-linecap="round"/>
</svg>
