<svg xmlns="http://www.w3.org/2000/svg" width="96" height="96" viewBox="0 0 96 96">
<rect x="0" y="0" width="96" height="96" fill="none"/>
<ellipse cx="48" cy="80" rx="28" ry="9" fill="#020617" opacity="0.16"/><path d="M16 73 C22 69 28 71 35 72 C46 74 56 74 66 70 C71 68 76 68 81 72" fill="none" stroke="#49c774" stroke-width="3" stroke-linecap="round" opacity="0.24"/>
<rect x="24" y="36" width="48" height="26" rx="7" fill="#344155" stroke="#111827" stroke-width="2.4"/><line x1="32" y1="70" x2="25" y2="80" stroke="#a8c7dd" stroke-width="4.2" stroke-linecap="round"/><line x1="64" y1="70" x2="71" y2="80" stroke="#a8c7dd" stroke-width="4.2" stroke-linecap="round"/><line x1="48" y1="62" x2="48" y2="80" stroke="#a8c7dd" stroke-width="4.2" stroke-linecap="round"/><path d="M31 52 C37 40 59 40 65 52" fill="none" stroke="#49c774" stroke-width="4" stroke-linecap="round"/><path d="M34 52 C38 48 42 46 48 46 C54 46 58 48 62 52" fill="none" stroke="#f8fafc" stroke-width="2" stroke-linecap="round" opacity="0.55"/>
</svg>
