<svg xmlns="http://www.w3.org/2000/svg" width="96" height="96" viewBox="0 0 96 96">
<rect x="0" y="0" width="96" height="96" fill="none"/>
<ellipse cx="48" cy="80" rx="28" ry="9" fill="#020617" opacity="0.16"/><path d="M16 73 C22 69 28 71 35 72 C46 74 56 74 66 70 C71 68 76 68 81 72" fill="none" stroke="#76f1e0" stroke-width="3" stroke-linecap="round" opacity="0.24"/>
<polygon points="29,67 36,34 43,67" fill="#13b5a0" stroke="#111827" stroke-width="2.2" stroke-linejoin="round"/><polygon points="41,71 49,23 58,71" fill="#76f1e0" stroke="#111827" stroke-width="2.2" stroke-linejoin="round"/><polygon points="56,67 64,38 70,67" fill="#13b5a0" stroke="#111827" stroke-width="2.2" stroke-linejoin="round"/><polygon points="18,69 24,46 30,69" fill="#76f1e0" stroke="#111827" stroke-width="2.2" stroke-linejoin="round"/><line x1="36" y1="40" x2="36" y2="62" stroke="#f8fafc" stroke-width="2" opacity="0.34" stroke-linecap="round"/><line x1="49" y1="29" x2="49" y2="66" stroke="#f8fafc" stroke-width="2" opacity="0.34" stroke-linecap="round"/><line x1="64" y1="44" x2="64" y2="62" stroke="#f8fafc" stroke-width="2" opacity="0.34" stroke-linecap="round"/><line x1="24" y1="52" x2="24" y2="64" stroke="#f8fafc" stroke-width="2" opacity="0.34" stroke-linecap="round"/>
</svg>
