<svg xmlns="http://www.w3.org/2000/svg" width="96" height="96" viewBox="0 0 96 96">
<rect x="0" y="0" width="96" height="96" fill="none"/>
<ellipse cx="48" cy="80" rx="28" ry="9" fill="#020617" opacity="0.16"/><path d="M16 73 C22 69 28 71 35 72 C46 74 56 74 66 70 C71 68 76 68 81 72" fill="none" stroke="#ef8d32" stroke-width="3" stroke-linecap="round" opacity="0.24"/>
<rect x="18" y="26" width="58" height="42" rx="8" fill="#607089" stroke="#111827" stroke-width="2.4"/><rect x="23" y="31" width="48" height="6" rx="3" fill="#d6a36d" opacity="0.7"/><circle cx="25" cy="33" r="2.2" fill="#f8fafc" stroke="#111827" stroke-width="0.9"/><circle cx="69" cy="33" r="2.2" fill="#f8fafc" stroke="#111827" stroke-width="0.9"/><circle cx="25" cy="61" r="2.2" fill="#f8fafc" stroke="#111827" stroke-width="0.9"/><circle cx="69" cy="61" r="2.2" fill="#f8fafc" stroke="#111827" stroke-width="0.9"/><rect x="28" y="36" width="19" height="21" rx="4" fill="#344155" stroke="#111827" stroke-width="1.8"/><rect x="52" y="36" width="13" height="8" rx="3" fill="#d6a36d" stroke="#111827" stroke-width="1.4" opacity="0.85"/><rect x="52" y="48" width="13" height="10" rx="3" fill="#a8c7dd" stroke="#111827" stroke-width="1.4" opacity="0.76"/><rect x="59" y="18" width="7" height="14" rx="2" fill="#ef8d32" stroke="#111827" stroke-width="1.4"/><line x1="30" y1="50" x2="45" y2="42" stroke="#d6a36d" stroke-width="5" stroke-linecap="round"/><line x1="37" y1="56" x2="52" y2="48" stroke="#d6a36d" stroke-width="5" stroke-linecap="round"/>
</svg>
