<svg xmlns="http://www.w3.org/2000/svg" width="96" height="96" viewBox="0 0 96 96">
<rect x="0" y="0" width="96" height="96" fill="none"/>
<ellipse cx="48" cy="80" rx="28" ry="9" fill="#020617" opacity="0.16"/><path d="M16 73 C22 69 28 71 35 72 C46 74 56 74 66 70 C71 68 76 68 81 72" fill="none" stroke="#f6b93b" stroke-width="3" stroke-linecap="round" opacity="0.24"/>
<rect x="18" y="60" width="58" height="10" rx="5" fill="#1f2430" stroke="#111827" stroke-width="2.2"/><circle cx="28" cy="71" r="6" fill="#a8c7dd" stroke="#111827" stroke-width="1.8"/><circle cx="44" cy="71" r="6" fill="#a8c7dd" stroke="#111827" stroke-width="1.8"/><circle cx="60" cy="71" r="6" fill="#a8c7dd" stroke="#111827" stroke-width="1.8"/><rect x="22" y="32" width="46" height="28" rx="8" fill="#607089" stroke="#111827" stroke-width="2.4"/><rect x="27" y="37" width="36" height="6" rx="3" fill="#f6b93b" opacity="0.7"/><circle cx="29" cy="39" r="2.2" fill="#f8fafc" stroke="#111827" stroke-width="0.9"/><circle cx="61" cy="39" r="2.2" fill="#f8fafc" stroke="#111827" stroke-width="0.9"/><circle cx="29" cy="53" r="2.2" fill="#f8fafc" stroke="#111827" stroke-width="0.9"/><circle cx="61" cy="53" r="2.2" fill="#f8fafc" stroke="#111827" stroke-width="0.9"/><rect x="42" y="18" width="6" height="16" rx="2.5" fill="#a8c7dd" stroke="#111827" stroke-width="1.8"/><path d="M48 31 L48 63" stroke="#f6b93b" stroke-width="5" stroke-linecap="round"/><path d="M42 41 L54 47 L42 53 L54 59 L42 65 L54 71" fill="none" stroke="#111827" stroke-width="2" opacity="0.75" stroke-linecap="round" stroke-linejoin="round"/><polygon points="43,63 53,63 48,73" fill="#f6b93b" stroke="#111827" stroke-width="1.6"/><path d="M57 35 L69 25 L78 31 L72 42 L83 52" fill="none" stroke="#f6b93b" stroke-width="6" stroke-linecap="round" stroke-linejoin="round"/><polygon points="79,49 87,57 74,61" fill="#f6b93b" stroke="#111827" stroke-width="1.8"/>
</svg>
