<svg xmlns="http://www.w3.org/2000/svg" width="96" height="96" viewBox="0 0 96 96">
<rect x="0" y="0" width="96" height="96" fill="none"/>
<ellipse cx="48" cy="80" rx="28" ry="9" fill="#020617" opacity="0.16"/><path d="M16 73 C22 69 28 71 35 72 C46 74 56 74 66 70 C71 68 76 68 81 72" fill="none" stroke="#ef8d32" stroke-width="3" stroke-linecap="round" opacity="0.24"/>
<rect x="22" y="19" width="52" height="53" rx="8" fill="#374151" stroke="#111827" stroke-width="2.4"/><rect x="27" y="24" width="42" height="6" rx="3" fill="#ef8d32" opacity="0.7"/><circle cx="29" cy="26" r="2.2" fill="#f8fafc" stroke="#111827" stroke-width="0.9"/><circle cx="67" cy="26" r="2.2" fill="#f8fafc" stroke="#111827" stroke-width="0.9"/><circle cx="29" cy="65" r="2.2" fill="#f8fafc" stroke="#111827" stroke-width="0.9"/><circle cx="67" cy="65" r="2.2" fill="#f8fafc" stroke="#111827" stroke-width="0.9"/><rect x="32" y="40" width="32" height="22" rx="8" fill="#1f2430" stroke="#111827" stroke-width="2"/><path d="M48 38 C40 47 41 54 48 61 C56 54 56 46 48 38 Z" fill="#ffd16b" stroke="#ef8d32" stroke-width="1.8"/><rect x="39" y="15" width="18" height="10" rx="4" fill="#a4afbe" stroke="#111827" stroke-width="1.6"/>
</svg>
