<svg xmlns="http://www.w3.org/2000/svg" width="96" height="96" viewBox="0 0 96 96">
<rect x="0" y="0" width="96" height="96" fill="none"/>
<ellipse cx="48" cy="80" rx="28" ry="9" fill="#020617" opacity="0.16"/><path d="M16 73 C22 69 28 71 35 72 C46 74 56 74 66 70 C71 68 76 68 81 72" fill="none" stroke="#f6b93b" stroke-width="3" stroke-linecap="round" opacity="0.24"/>
<rect x="20" y="24" width="56" height="42" rx="8" fill="#607089" stroke="#111827" stroke-width="2.4"/><rect x="25" y="29" width="46" height="6" rx="3" fill="#f6b93b" opacity="0.7"/><circle cx="27" cy="31" r="2.2" fill="#f8fafc" stroke="#111827" stroke-width="0.9"/><circle cx="69" cy="31" r="2.2" fill="#f8fafc" stroke="#111827" stroke-width="0.9"/><circle cx="27" cy="59" r="2.2" fill="#f8fafc" stroke="#111827" stroke-width="0.9"/><circle cx="69" cy="59" r="2.2" fill="#f8fafc" stroke="#111827" stroke-width="0.9"/><polygon points="28,38 43,34 37,51" fill="#a8c7dd" stroke="#111827" stroke-width="1.8"/><polygon points="68,38 53,34 59,51" fill="#a8c7dd" stroke="#111827" stroke-width="1.8"/><circle cx="48" cy="54" r="6" fill="#f6b93b" stroke="#111827" stroke-width="1.4"/>
</svg>
