<svg xmlns="http://www.w3.org/2000/svg" width="96" height="96" viewBox="0 0 96 96">
<rect x="0" y="0" width="96" height="96" fill="none"/>
<ellipse cx="48" cy="80" rx="28" ry="9" fill="#020617" opacity="0.16"/><path d="M16 73 C22 69 28 71 35 72 C46 74 56 74 66 70 C71 68 76 68 81 72" fill="none" stroke="#d07a3d" stroke-width="3" stroke-linecap="round" opacity="0.24"/>
<rect x="20" y="26" width="56" height="40" rx="8" fill="#607089" stroke="#111827" stroke-width="2.4"/><rect x="25" y="31" width="46" height="6" rx="3" fill="#d07a3d" opacity="0.7"/><circle cx="27" cy="33" r="2.2" fill="#f8fafc" stroke="#111827" stroke-width="0.9"/><circle cx="69" cy="33" r="2.2" fill="#f8fafc" stroke="#111827" stroke-width="0.9"/><circle cx="27" cy="59" r="2.2" fill="#f8fafc" stroke="#111827" stroke-width="0.9"/><circle cx="69" cy="59" r="2.2" fill="#f8fafc" stroke="#111827" stroke-width="0.9"/><circle cx="48" cy="49" r="8" fill="none" stroke="#d07a3d" stroke-width="2.6" opacity="0.95"/><circle cx="48" cy="49" r="12" fill="none" stroke="#d07a3d" stroke-width="2.6" opacity="0.8099999999999999"/><circle cx="48" cy="49" r="16" fill="none" stroke="#d07a3d" stroke-width="2.6" opacity="0.6699999999999999"/><circle cx="48" cy="49" r="20" fill="none" stroke="#d07a3d" stroke-width="2.6" opacity="0.5299999999999999"/><circle cx="48" cy="49" r="24" fill="none" stroke="#d07a3d" stroke-width="2.6" opacity="0.3899999999999999"/><rect x="28" y="34" width="7" height="32" rx="3" fill="#344155" stroke="#111827" stroke-width="1.8"/><rect x="61" y="34" width="7" height="32" rx="3" fill="#344155" stroke="#111827" stroke-width="1.8"/><line x1="24" y1="46" x2="33" y2="46" stroke="#d07a3d" stroke-width="4" stroke-linecap="round"/>
</svg>
