<svg xmlns="http://www.w3.org/2000/svg" width="96" height="96" viewBox="0 0 96 96">
<rect x="0" y="0" width="96" height="96" fill="none"/>
<ellipse cx="48" cy="80" rx="28" ry="9" fill="#020617" opacity="0.16"/><path d="M16 73 C22 69 28 71 35 72 C46 74 56 74 66 70 C71 68 76 68 81 72" fill="none" stroke="#4aa7d9" stroke-width="3" stroke-linecap="round" opacity="0.24"/>
<rect x="19" y="25" width="58" height="42" rx="8" fill="#607089" stroke="#111827" stroke-width="2.4"/><rect x="24" y="30" width="48" height="6" rx="3" fill="#4aa7d9" opacity="0.7"/><circle cx="26" cy="32" r="2.2" fill="#f8fafc" stroke="#111827" stroke-width="0.9"/><circle cx="70" cy="32" r="2.2" fill="#f8fafc" stroke="#111827" stroke-width="0.9"/><circle cx="26" cy="60" r="2.2" fill="#f8fafc" stroke="#111827" stroke-width="0.9"/><circle cx="70" cy="60" r="2.2" fill="#f8fafc" stroke="#111827" stroke-width="0.9"/><circle cx="48" cy="46" r="14" fill="#4aa7d9" opacity="0.72" stroke="#111827" stroke-width="1.8"/><path d="M46 36 C41 43 42 48 46 53 C51 48 51 42 46 36 Z" fill="#f8fafc" opacity="0.88"/><path d="M56 42 C52 47 53 51 56 55 C60 51 60 46 56 42 Z" fill="#f8fafc" opacity="0.64"/>
</svg>
