<svg xmlns="http://www.w3.org/2000/svg" width="96" height="96" viewBox="0 0 96 96">
<rect x="0" y="0" width="96" height="96" fill="none"/>
<ellipse cx="48" cy="80" rx="28" ry="9" fill="#020617" opacity="0.16"/><path d="M16 73 C22 69 28 71 35 72 C46 74 56 74 66 70 C71 68 76 68 81 72" fill="none" stroke="#d3b04b" stroke-width="3" stroke-linecap="round" opacity="0.24"/>
<rect x="21" y="24" width="54" height="42" rx="10" fill="#1f8a70" stroke="#111827" stroke-width="2.6"/><rect x="30" y="33" width="16" height="14" rx="4" fill="#344155" stroke="#111827" stroke-width="1.8"/><rect x="24" y="66" width="4" height="7" rx="1.6" fill="#d3b04b" stroke="#111827" stroke-width="1"/><rect x="36" y="66" width="4" height="7" rx="1.6" fill="#d3b04b" stroke="#111827" stroke-width="1"/><rect x="48" y="66" width="4" height="7" rx="1.6" fill="#d3b04b" stroke="#111827" stroke-width="1"/><rect x="60" y="66" width="4" height="7" rx="1.6" fill="#d3b04b" stroke="#111827" stroke-width="1"/><path d="M46 40 L57 40 L57 51 L67 51" fill="none" stroke="#d3b04b" stroke-width="3" stroke-linecap="round" stroke-linejoin="round"/><path d="M33 51 L39 51 L39 41 L46 41" fill="none" stroke="#d3b04b" stroke-width="3" stroke-linecap="round" stroke-linejoin="round"/><circle cx="57" cy="51" r="3" fill="#49c774" stroke="#111827" stroke-width="1"/>
</svg>
