<svg xmlns="http://www.w3.org/2000/svg" width="96" height="96" viewBox="0 0 96 96">
<rect x="0" y="0" width="96" height="96" fill="none"/>
<ellipse cx="48" cy="80" rx="28" ry="9" fill="#020617" opacity="0.16"/><path d="M16 73 C22 69 28 71 35 72 C46 74 56 74 66 70 C71 68 76 68 81 72" fill="none" stroke="#f5c89c" stroke-width="3" stroke-linecap="round" opacity="0.24"/>
<path d="M24 58 C32 43 40 36 47 36 C56 36 62 41 71 29" fill="none" stroke="#d07a3d" stroke-width="6" stroke-linecap="round"/><circle cx="48" cy="49" r="8" fill="none" stroke="#d07a3d" stroke-width="2.6" opacity="0.95"/><circle cx="48" cy="49" r="12" fill="none" stroke="#d07a3d" stroke-width="2.6" opacity="0.8099999999999999"/><circle cx="48" cy="49" r="16" fill="none" stroke="#d07a3d" stroke-width="2.6" opacity="0.6699999999999999"/><circle cx="48" cy="49" r="20" fill="none" stroke="#d07a3d" stroke-width="2.6" opacity="0.5299999999999999"/><circle cx="48" cy="49" r="24" fill="none" stroke="#d07a3d" stroke-width="2.6" opacity="0.3899999999999999"/><rect x="28" y="34" width="7" height="32" rx="3" fill="#a8c7dd" stroke="#111827" stroke-width="1.8"/><rect x="61" y="34" width="7" height="32" rx="3" fill="#a8c7dd" stroke="#111827" stroke-width="1.8"/>
</svg>
