<svg xmlns="http://www.w3.org/2000/svg" width="96" height="96" viewBox="0 0 96 96">
<rect x="0" y="0" width="96" height="96" fill="none"/>
<ellipse cx="48" cy="80" rx="28" ry="9" fill="#020617" opacity="0.16"/><path d="M16 73 C22 69 28 71 35 72 C46 74 56 74 66 70 C71 68 76 68 81 72" fill="none" stroke="#ffd16b" stroke-width="3" stroke-linecap="round" opacity="0.24"/>
<path d="M19 57 C21 37 34 24 48 24 C63 24 76 37 77 57 L19 57 Z" fill="#6b7c93" stroke="#111827" stroke-width="2.6" stroke-linejoin="round"/><rect x="21" y="53" width="54" height="11" rx="5" fill="#344155" stroke="#111827" stroke-width="2"/><circle cx="48" cy="44" r="7" fill="#ffd16b" stroke="#111827" stroke-width="2"/><path d="M55 39 L74 28 M57 45 L79 45 M55 51 L74 62" fill="none" stroke="#ffd16b" stroke-width="3.2" stroke-linecap="round" opacity="0.7"/><line x1="32" y1="35" x2="43" y2="30" stroke="#f8fafc" stroke-width="2.4" opacity="0.28" stroke-linecap="round"/>
</svg>
