<svg xmlns="http://www.w3.org/2000/svg" width="96" height="96" viewBox="0 0 96 96">
<rect x="0" y="0" width="96" height="96" fill="none"/>
<ellipse cx="48" cy="80" rx="28" ry="9" fill="#020617" opacity="0.16"/><path d="M16 73 C22 69 28 71 35 72 C46 74 56 74 66 70 C71 68 76 68 81 72" fill="none" stroke="#d07a3d" stroke-width="3" stroke-linecap="round" opacity="0.24"/>
<rect x="42" y="18" width="8" height="52" rx="4" fill="#8e5f35" stroke="#4c2f1d" stroke-width="2.2" transform="rotate(-34 46 44)"/><path d="M31 25 C41 18 54 18 67 24 L72 30 L50 38 L27 33 Z" fill="#d07a3d" stroke="#111827" stroke-width="2.2" stroke-linejoin="round"/><polygon points="67,24 78,20 70,35" fill="#4f9a82" stroke="#111827" stroke-width="1.8" stroke-linejoin="round"/><rect x="42" y="45" width="8" height="14" rx="3" fill="#d6a36d" stroke="#4c2f1d" stroke-width="1.6" transform="rotate(-34 46 52)"/><line x1="38" y1="22" x2="51" y2="18" stroke="#f8fafc" stroke-width="2.2" opacity="0.34" stroke-linecap="round"/>
</svg>
