<svg xmlns="http://www.w3.org/2000/svg" width="96" height="96" viewBox="0 0 96 96">
<rect x="0" y="0" width="96" height="96" fill="none"/>
<ellipse cx="48" cy="80" rx="28" ry="9" fill="#020617" opacity="0.16"/><path d="M16 73 C22 69 28 71 35 72 C46 74 56 74 66 70 C71 68 76 68 81 72" fill="none" stroke="#6b7c93" stroke-width="3" stroke-linecap="round" opacity="0.24"/>
<rect x="42" y="18" width="8" height="52" rx="4" fill="#8e5f35" stroke="#4c2f1d" stroke-width="2.2" transform="rotate(-34 46 44)"/><path d="M33 25 L65 33 L58 43 L30 37 Z" fill="#6b7c93" stroke="#111827" stroke-width="2.2" stroke-linejoin="round"/><path d="M61 31 L78 18 L73 42 L58 40 Z" fill="#a8c7dd" stroke="#111827" stroke-width="2"/><circle cx="24" cy="59" r="7" fill="#dce9ff" stroke="#111827" stroke-width="1.8"/><line x1="20" y1="59" x2="28" y2="59" stroke="#18623a" stroke-width="1.4"/>
</svg>
