<svg xmlns="http://www.w3.org/2000/svg" width="96" height="96" viewBox="0 0 96 96">
<rect x="0" y="0" width="96" height="96" fill="none"/>
<ellipse cx="48" cy="80" rx="28" ry="9" fill="#020617" opacity="0.16"/><path d="M16 73 C22 69 28 71 35 72 C46 74 56 74 66 70 C71 68 76 68 81 72" fill="none" stroke="#a8c7dd" stroke-width="3" stroke-linecap="round" opacity="0.24"/>
<rect x="39" y="24" width="16" height="10" rx="5" fill="#d6a36d" stroke="#111827" stroke-width="2"/><rect x="44" y="34" width="6" height="30" rx="3" fill="#607089" stroke="#111827" stroke-width="2"/><path d="M31 41 C25 43 20 46 18 52" fill="none" stroke="#4c2f1d" stroke-width="4.6" stroke-linecap="round"/><line x1="18" y1="52" x2="26" y2="57" stroke="#d6a36d" stroke-width="4.8" stroke-linecap="round"/><path d="M47 58 L47 71" stroke="#a8c7dd" stroke-width="5" stroke-linecap="round"/><path d="M41 68 L53 74 L41 80 L53 86 L41 92 L53 98" fill="none" stroke="#111827" stroke-width="2" opacity="0.75" stroke-linecap="round" stroke-linejoin="round"/><polygon points="42,71 52,71 47,81" fill="#a8c7dd" stroke="#111827" stroke-width="1.6"/>
</svg>
