<svg xmlns="http://www.w3.org/2000/svg" width="96" height="96" viewBox="0 0 96 96">
<rect x="0" y="0" width="96" height="96" fill="none"/>
<ellipse cx="48" cy="80" rx="28" ry="9" fill="#020617" opacity="0.16"/><path d="M16 73 C22 69 28 71 35 72 C46 74 56 74 66 70 C71 68 76 68 81 72" fill="none" stroke="#cfd7df" stroke-width="3" stroke-linecap="round" opacity="0.24"/>
<rect x="21" y="30" width="54" height="34" rx="8" fill="#607089" stroke="#111827" stroke-width="2.4"/><rect x="26" y="35" width="44" height="6" rx="3" fill="#cfd7df" opacity="0.7"/><circle cx="28" cy="37" r="2.2" fill="#f8fafc" stroke="#111827" stroke-width="0.9"/><circle cx="68" cy="37" r="2.2" fill="#f8fafc" stroke="#111827" stroke-width="0.9"/><circle cx="28" cy="57" r="2.2" fill="#f8fafc" stroke="#111827" stroke-width="0.9"/><circle cx="68" cy="57" r="2.2" fill="#f8fafc" stroke="#111827" stroke-width="0.9"/><circle cx="50" cy="47" r="14" fill="#a8c7dd" stroke="#111827" stroke-width="2"/><polygon points="50,47 66,45 70,49" fill="#cfd7df" opacity="0.8"/><polygon points="50,47 60.72792206135786,57.72792206135786 64.72792206135786,61.72792206135786" fill="#cfd7df" opacity="0.8"/><polygon points="50,47 48,63 52,67" fill="#cfd7df" opacity="0.8"/><polygon points="50,47 35.27207793864214,57.72792206135786 39.27207793864214,61.72792206135786" fill="#cfd7df" opacity="0.8"/><polygon points="50,47 30,45 34,49" fill="#cfd7df" opacity="0.8"/><polygon points="50,47 35.27207793864214,32.27207793864214 39.27207793864214,36.27207793864214" fill="#cfd7df" opacity="0.8"/><polygon points="50,47 48,27 52,31" fill="#cfd7df" opacity="0.8"/><polygon points="50,47 60.72792206135785,32.27207793864214 64.72792206135784,36.27207793864214" fill="#cfd7df" opacity="0.8"/>
</svg>
