<svg xmlns="http://www.w3.org/2000/svg" width="96" height="96" viewBox="0 0 96 96">
<rect x="0" y="0" width="96" height="96" fill="none"/>
<ellipse cx="48" cy="80" rx="28" ry="9" fill="#020617" opacity="0.16"/><path d="M16 73 C22 69 28 71 35 72 C46 74 56 74 66 70 C71 68 76 68 81 72" fill="none" stroke="#d07a3d" stroke-width="3" stroke-linecap="round" opacity="0.24"/>
<rect x="24" y="60" width="48" height="9" rx="5" fill="#1f2430" stroke="#111827" stroke-width="2.2"/><circle cx="32" cy="69" r="5" fill="#a8c7dd" stroke="#111827" stroke-width="1.8"/><circle cx="48" cy="69" r="5" fill="#a8c7dd" stroke="#111827" stroke-width="1.8"/><circle cx="64" cy="69" r="5" fill="#a8c7dd" stroke="#111827" stroke-width="1.8"/><rect x="22" y="32" width="46" height="28" rx="8" fill="#607089" stroke="#111827" stroke-width="2.4"/><rect x="27" y="37" width="36" height="6" rx="3" fill="#d07a3d" opacity="0.7"/><circle cx="29" cy="39" r="2.2" fill="#f8fafc" stroke="#111827" stroke-width="0.9"/><circle cx="61" cy="39" r="2.2" fill="#f8fafc" stroke="#111827" stroke-width="0.9"/><circle cx="29" cy="53" r="2.2" fill="#f8fafc" stroke="#111827" stroke-width="0.9"/><circle cx="61" cy="53" r="2.2" fill="#f8fafc" stroke="#111827" stroke-width="0.9"/><rect x="42" y="18" width="6" height="16" rx="2.5" fill="#a8c7dd" stroke="#111827" stroke-width="1.8"/><rect x="38" y="10" width="20" height="12" rx="4" fill="#344155" stroke="#111827" stroke-width="2"/><path d="M48 22 L48 66" stroke="#d07a3d" stroke-width="5" stroke-linecap="round"/><path d="M42 32 L54 38 L42 44 L54 50 L42 56 L54 62" fill="none" stroke="#111827" stroke-width="2" opacity="0.75" stroke-linecap="round" stroke-linejoin="round"/><polygon points="43,66 53,66 48,76" fill="#d07a3d" stroke="#111827" stroke-width="1.6"/>
</svg>
