<svg xmlns="http://www.w3.org/2000/svg" width="96" height="96" viewBox="0 0 96 96">
<rect x="0" y="0" width="96" height="96" fill="none"/>
<ellipse cx="48" cy="80" rx="28" ry="9" fill="#020617" opacity="0.16"/><path d="M16 73 C22 69 28 71 35 72 C46 74 56 74 66 70 C71 68 76 68 81 72" fill="none" stroke="#cfd7df" stroke-width="3" stroke-linecap="round" opacity="0.24"/>
<rect x="21" y="29" width="54" height="34" rx="8" fill="#607089" stroke="#111827" stroke-width="2.4"/><rect x="26" y="34" width="44" height="6" rx="3" fill="#cfd7df" opacity="0.7"/><circle cx="28" cy="36" r="2.2" fill="#f8fafc" stroke="#111827" stroke-width="0.9"/><circle cx="68" cy="36" r="2.2" fill="#f8fafc" stroke="#111827" stroke-width="0.9"/><circle cx="28" cy="56" r="2.2" fill="#f8fafc" stroke="#111827" stroke-width="0.9"/><circle cx="68" cy="56" r="2.2" fill="#f8fafc" stroke="#111827" stroke-width="0.9"/><rect x="29" y="37" width="38" height="18" rx="5" fill="#344155" stroke="#111827" stroke-width="1.6"/><line x1="34" y1="37" x2="34" y2="55" stroke="#a8c7dd" stroke-width="1.4" opacity="0.8"/><line x1="42" y1="37" x2="42" y2="55" stroke="#a8c7dd" stroke-width="1.4" opacity="0.8"/><line x1="50" y1="37" x2="50" y2="55" stroke="#a8c7dd" stroke-width="1.4" opacity="0.8"/><line x1="58" y1="37" x2="58" y2="55" stroke="#a8c7dd" stroke-width="1.4" opacity="0.8"/><line x1="29" y1="42" x2="67" y2="42" stroke="#a8c7dd" stroke-width="1.4" opacity="0.8"/><line x1="29" y1="50" x2="67" y2="50" stroke="#a8c7dd" stroke-width="1.4" opacity="0.8"/>
</svg>
