<svg xmlns="http://www.w3.org/2000/svg" width="96" height="96" viewBox="0 0 96 96">
<rect x="0" y="0" width="96" height="96" fill="none"/>
<ellipse cx="48" cy="80" rx="28" ry="9" fill="#020617" opacity="0.16"/><path d="M16 73 C22 69 28 71 35 72 C46 74 56 74 66 70 C71 68 76 68 81 72" fill="none" stroke="#49c774" stroke-width="3" stroke-linecap="round" opacity="0.24"/>
<rect x="22" y="25" width="52" height="42" rx="8" fill="#607089" stroke="#111827" stroke-width="2.4"/><rect x="27" y="30" width="42" height="6" rx="3" fill="#49c774" opacity="0.7"/><circle cx="29" cy="32" r="2.2" fill="#f8fafc" stroke="#111827" stroke-width="0.9"/><circle cx="67" cy="32" r="2.2" fill="#f8fafc" stroke="#111827" stroke-width="0.9"/><circle cx="29" cy="60" r="2.2" fill="#f8fafc" stroke="#111827" stroke-width="0.9"/><circle cx="67" cy="60" r="2.2" fill="#f8fafc" stroke="#111827" stroke-width="0.9"/><circle cx="48" cy="47" r="15" fill="#344155" stroke="#111827" stroke-width="2"/><line x1="48" y1="33" x2="48" y2="61" stroke="#a8c7dd" stroke-width="3.4" stroke-linecap="round"/><path d="M41 39 L55 47 L41 55" fill="none" stroke="#49c774" stroke-width="3.8" stroke-linecap="round" stroke-linejoin="round"/>
</svg>
