<svg xmlns="http://www.w3.org/2000/svg" width="96" height="96" viewBox="0 0 96 96">
<rect x="0" y="0" width="96" height="96" fill="none"/>
<ellipse cx="48" cy="80" rx="28" ry="9" fill="#020617" opacity="0.16"/><path d="M16 73 C22 69 28 71 35 72 C46 74 56 74 66 70 C71 68 76 68 81 72" fill="none" stroke="#f6b93b" stroke-width="3" stroke-linecap="round" opacity="0.24"/>
<rect x="19" y="30" width="58" height="34" rx="8" fill="#607089" stroke="#111827" stroke-width="2.4"/><rect x="24" y="35" width="48" height="6" rx="3" fill="#f6b93b" opacity="0.7"/><circle cx="26" cy="37" r="2.2" fill="#f8fafc" stroke="#111827" stroke-width="0.9"/><circle cx="70" cy="37" r="2.2" fill="#f8fafc" stroke="#111827" stroke-width="0.9"/><circle cx="26" cy="57" r="2.2" fill="#f8fafc" stroke="#111827" stroke-width="0.9"/><circle cx="70" cy="57" r="2.2" fill="#f8fafc" stroke="#111827" stroke-width="0.9"/><path d="M 48.00 33.00 L 51.90 38.89 L 58.95 38.27 L 56.77 45.00 L 61.65 50.12 L 55.04 52.61 L 54.07 59.61 L 48.00 56.00 L 41.93 59.61 L 40.96 52.61 L 34.35 50.12 L 39.23 45.00 L 37.05 38.27 L 44.10 38.89 Z" fill="#f6b93b" stroke="#111827" stroke-width="1.8"/><path d="M30 40 L39 46 L34 57" fill="none" stroke="#a8c7dd" stroke-width="5" stroke-linecap="round" stroke-linejoin="round"/><path d="M66 40 L57 46 L62 57" fill="none" stroke="#a8c7dd" stroke-width="5" stroke-linecap="round" stroke-linejoin="round"/>
</svg>
