<svg xmlns="http://www.w3.org/2000/svg" width="96" height="96" viewBox="0 0 96 96">
<rect x="0" y="0" width="96" height="96" fill="none"/>
<ellipse cx="48" cy="80" rx="28" ry="9" fill="#020617" opacity="0.16"/><path d="M16 73 C22 69 28 71 35 72 C46 74 56 74 66 70 C71 68 76 68 81 72" fill="none" stroke="#d3c8be" stroke-width="3" stroke-linecap="round" opacity="0.24"/>
<path d="M20 67 C24 54 35 45 47 45 C59 45 70 52 76 67 L76 74 L20 74 Z" fill="#8b8178" stroke="#111827" stroke-width="2.4" stroke-linejoin="round"/><circle cx="34" cy="56" r="4.2" fill="#d3c8be" opacity="0.55"/><circle cx="49" cy="54" r="5" fill="#d3c8be" opacity="0.4"/><circle cx="61" cy="59" r="4" fill="#d3c8be" opacity="0.5"/><circle cx="27" cy="71" r="2.4" fill="#d3c8be" stroke="#111827" stroke-width="0.8" opacity="0.9"/><circle cx="38" cy="70" r="2.4" fill="#d3c8be" stroke="#111827" stroke-width="0.8" opacity="0.9"/><circle cx="46" cy="71" r="2.4" fill="#d3c8be" stroke="#111827" stroke-width="0.8" opacity="0.9"/><circle cx="57" cy="70" r="2.4" fill="#d3c8be" stroke="#111827" stroke-width="0.8" opacity="0.9"/><circle cx="68" cy="71" r="2.4" fill="#d3c8be" stroke="#111827" stroke-width="0.8" opacity="0.9"/>
</svg>
